<svg xmlns="http://www.w3.org/2000/svg" viewBox="0 0 31.79 35.11"><defs><style>.cls-1{fill:#149540;}</style></defs><g id="Camada_2" data-name="Camada 2"><g id="Camada_1-2" data-name="Camada 1"><g id="Icon_feather-package" data-name="Icon feather-package"><g id="Caminho_6" data-name="Caminho 6"><path class="cls-1" d="M23.09,14.83a1.42,1.42,0,0,1-.74-.2L8,6.33a1.5,1.5,0,0,1,1.49-2.6L23.84,12a1.5,1.5,0,0,1-.75,2.8Z"/></g><g id="Caminho_7" data-name="Caminho 7"><path class="cls-1" d="M15.9,35a4.71,4.71,0,0,1-2.35-.63L2.36,28A4.69,4.69,0,0,1,0,23.9V11.09A4.69,4.69,0,0,1,2.35,7L13.55.63a4.68,4.68,0,0,1,4.69,0L29.44,7a4.69,4.69,0,0,1,2.35,4.06v12.8A4.69,4.69,0,0,1,29.45,28l-11.21,6.4A4.64,4.64,0,0,1,15.9,35Zm0-32a1.72,1.72,0,0,0-.85.23L3.84,9.63A1.71,1.71,0,0,0,3,11.1V23.9a1.7,1.7,0,0,0,.85,1.46L15,31.76a1.69,1.69,0,0,0,1.71,0L28,25.36a1.7,1.7,0,0,0,.83-1.47h0V11.09a1.68,1.68,0,0,0-.85-1.46L16.75,3.23A1.76,1.76,0,0,0,15.89,3Z"/></g><g id="Caminho_8" data-name="Caminho 8"><path class="cls-1" d="M15.9,19a1.53,1.53,0,0,1-.75-.2l-14-8.08a1.5,1.5,0,1,1,1.5-2.6L15.9,15.77,29.11,8.13a1.5,1.5,0,1,1,1.5,2.6l-14,8.08A1.53,1.53,0,0,1,15.9,19Z"/></g><g id="Caminho_9" data-name="Caminho 9"><path class="cls-1" d="M15.9,35.11a1.5,1.5,0,0,1-1.5-1.5V17.49a1.5,1.5,0,0,1,3,0V33.61A1.5,1.5,0,0,1,15.9,35.11Z"/></g></g></g></g></svg>