<svg xmlns="http://www.w3.org/2000/svg" viewBox="0 0 119 96.6"><defs><style>.cls-1{fill:#016422;}</style></defs><g id="Camada_2" data-name="Camada 2"><g id="Camada_1-2" data-name="Camada 1"><path class="cls-1" d="M119,14.64h0A14.77,14.77,0,0,0,104.29,0H14.69A14.76,14.76,0,0,0,0,14.59s0,.05,0,.07V81.91A14.76,14.76,0,0,0,14.7,96.6h89.6A14.78,14.78,0,0,0,119,81.9V14.69S119,14.66,119,14.64ZM14.7,7h89.59a7.76,7.76,0,0,1,7.51,6L59.5,49.63,7.2,13A7.74,7.74,0,0,1,14.7,7Zm89.59,82.6H14.71A7.74,7.74,0,0,1,7,81.9V21.42L57.49,56.77a3.52,3.52,0,0,0,4,0L112,21.42V81.89A7.76,7.76,0,0,1,104.29,89.6Z"/></g></g></svg>