<?xml version="1.0" encoding="utf-8"?>
<!-- Generator: Adobe Illustrator 24.2.0, SVG Export Plug-In . SVG Version: 6.00 Build 0)  -->
<svg version="1.1" id="Camada_1" xmlns="http://www.w3.org/2000/svg" xmlns:xlink="http://www.w3.org/1999/xlink" x="0px" y="0px"
	 viewBox="0 0 11.2 18.4" style="enable-background:new 0 0 11.2 18.4;" xml:space="preserve">
<style type="text/css">
	.st0{fill:#149540;}
</style>
<path id="Icon_awesome-chevron-right" class="st0" d="M0.3,8.5l8.2-8.2c0.4-0.4,1-0.4,1.4,0c0,0,0,0,0,0l1,1c0.4,0.4,0.4,1,0,1.4
	L4.4,9.2l6.5,6.5c0.4,0.4,0.4,1,0,1.4l-1,1c-0.4,0.4-1,0.4-1.4,0c0,0,0,0,0,0L0.3,9.9C-0.1,9.5-0.1,8.9,0.3,8.5
	C0.3,8.5,0.3,8.5,0.3,8.5z"/>
</svg>
