<svg xmlns="http://www.w3.org/2000/svg" width="33.746" height="26.997" viewBox="0 0 33.746 26.997">
  <path id="Icon_awesome-truck" data-name="Icon awesome-truck" d="M32.9,18.56h-.844v-5.7a2.531,2.531,0,0,0-.743-1.787L26.048,5.805a2.531,2.531,0,0,0-1.787-.743H21.935V2.531A2.532,2.532,0,0,0,19.4,0H2.531A2.532,2.532,0,0,0,0,2.531V19.4a2.532,2.532,0,0,0,2.531,2.531h.844a5.062,5.062,0,1,0,10.124,0h6.749a5.062,5.062,0,1,0,10.124,0H32.9a.846.846,0,0,0,.844-.844V19.4A.846.846,0,0,0,32.9,18.56ZM8.437,24.466a2.531,2.531,0,1,1,2.531-2.531A2.532,2.532,0,0,1,8.437,24.466Zm16.873,0a2.531,2.531,0,1,1,2.531-2.531A2.532,2.532,0,0,1,25.31,24.466ZM29.528,13.5H21.935V7.593H24.26l5.268,5.268Z" fill="#149540"/>
</svg>
