<svg viewBox="0 0 31.79 35.11"><path d="M23.09 14.83a1.42 1.42 0 0 1-.74-.2L8 6.33a1.5 1.5 0 0 1 1.49-2.6L23.84 12a1.5 1.5 0 0 1-.75 2.8z"/><path d="M15.9 35a4.71 4.71 0 0 1-2.35-.63L2.36 28A4.69 4.69 0 0 1 0 23.9V11.09A4.69 4.69 0 0 1 2.35 7L13.55.63a4.68 4.68 0 0 1 4.69 0L29.44 7a4.69 4.69 0 0 1 2.35 4.06v12.8A4.69 4.69 0 0 1 29.45 28l-11.21 6.4a4.64 4.64 0 0 1-2.34.6zm0-32a1.72 1.72 0 0 0-.85.23L3.84 9.63A1.71 1.71 0 0 0 3 11.1v12.8a1.7 1.7 0 0 0 .85 1.46L15 31.76a1.69 1.69 0 0 0 1.71 0L28 25.36a1.7 1.7 0 0 0 .83-1.47v-12.8a1.68 1.68 0 0 0-.85-1.46l-11.23-6.4a1.76 1.76 0 0 0-.86-.23z"/><path d="M15.9 19a1.53 1.53 0 0 1-.75-.2l-14-8.08a1.5 1.5 0 1 1 1.5-2.6l13.25 7.65 13.21-7.64a1.5 1.5 0 1 1 1.5 2.6l-14 8.08a1.53 1.53 0 0 1-.71.19z"/><path d="M15.9 35.11a1.5 1.5 0 0 1-1.5-1.5V17.49a1.5 1.5 0 0 1 3 0v16.12a1.5 1.5 0 0 1-1.5 1.5z"/></svg>