<svg width="33.746" height="26.997"><path d="M32.9 18.56h-.844v-5.7a2.531 2.531 0 0 0-.743-1.787l-5.265-5.268a2.531 2.531 0 0 0-1.787-.743h-2.326V2.531A2.532 2.532 0 0 0 19.4 0H2.531A2.532 2.532 0 0 0 0 2.531V19.4a2.532 2.532 0 0 0 2.531 2.531h.844a5.062 5.062 0 1 0 10.124 0h6.749a5.062 5.062 0 1 0 10.124 0H32.9a.846.846 0 0 0 .844-.844V19.4a.846.846 0 0 0-.844-.84zM8.437 24.466a2.531 2.531 0 1 1 2.531-2.531 2.532 2.532 0 0 1-2.531 2.531zm16.873 0a2.531 2.531 0 1 1 2.531-2.531 2.532 2.532 0 0 1-2.531 2.531zM29.528 13.5h-7.593V7.593h2.325l5.268 5.268z"/></svg>