<svg class="svg-sprites" id="skin-sprite" xmlns="http://www.w3.org/2000/svg" xmlns:xlink="http://www.w3.org/1999/xlink">
    <symbol viewBox="0 0 31.79 35.11" id="z-box"><path d="M23.09 14.83a1.42 1.42 0 0 1-.74-.2L8 6.33a1.5 1.5 0 0 1 1.49-2.6L23.84 12a1.5 1.5 0 0 1-.75 2.8z"/><path d="M15.9 35a4.71 4.71 0 0 1-2.35-.63L2.36 28A4.69 4.69 0 0 1 0 23.9V11.09A4.69 4.69 0 0 1 2.35 7L13.55.63a4.68 4.68 0 0 1 4.69 0L29.44 7a4.69 4.69 0 0 1 2.35 4.06v12.8A4.69 4.69 0 0 1 29.45 28l-11.21 6.4a4.64 4.64 0 0 1-2.34.6zm0-32a1.72 1.72 0 0 0-.85.23L3.84 9.63A1.71 1.71 0 0 0 3 11.1v12.8a1.7 1.7 0 0 0 .85 1.46L15 31.76a1.69 1.69 0 0 0 1.71 0L28 25.36a1.7 1.7 0 0 0 .83-1.47v-12.8a1.68 1.68 0 0 0-.85-1.46l-11.23-6.4a1.76 1.76 0 0 0-.86-.23z"/><path d="M15.9 19a1.53 1.53 0 0 1-.75-.2l-14-8.08a1.5 1.5 0 1 1 1.5-2.6l13.25 7.65 13.21-7.64a1.5 1.5 0 1 1 1.5 2.6l-14 8.08a1.53 1.53 0 0 1-.71.19z"/><path d="M15.9 35.11a1.5 1.5 0 0 1-1.5-1.5V17.49a1.5 1.5 0 0 1 3 0v16.12a1.5 1.5 0 0 1-1.5 1.5z"/></symbol>
    <symbol viewBox="0 0 33 26.4" id="z-card"><path d="M29.7 0H3.3A3.275 3.275 0 0 0 .016 3.3L0 23.1a3.289 3.289 0 0 0 3.3 3.3h26.4a3.289 3.289 0 0 0 3.3-3.3V3.3A3.289 3.289 0 0 0 29.7 0zm0 23.1H3.3v-9.9h26.4zm0-16.5H3.3V3.3h26.4z"/></symbol>
    <symbol viewBox="0 0 20.5 52.7" id="z-carousel-next"><path d="M1.8.6c.5 0 .9.2 1.2.6l16.9 24.3c.4.5.4 1.2 0 1.7L3 51.5c-.5.7-1.4.8-2.1.4-.7-.5-.8-1.4-.4-2.1l16.3-23.4L.6 2.9C.1 2.3.3 1.3.9.9c.3-.2.6-.3.9-.3z"/></symbol>
    <symbol viewBox="0 0 20.5 52.7" id="z-carousel-prev"><path d="M18.7 52.2c-.5 0-.9-.2-1.2-.6L.6 27.2c-.4-.5-.4-1.2 0-1.7L17.4 1.2c.5-.7 1.4-.8 2.1-.4.7.5.8 1.4.4 2.1L3.6 26.4l16.3 23.4c.5.7.3 1.6-.4 2.1-.2.2-.5.3-.8.3z"/></symbol>
    <symbol viewBox="0 0 28.725 25.533" id="z-cart"><path d="M26.337 15.027l2.357-10.373a1.2 1.2 0 0 0-1.167-1.462H7.94L7.482.957A1.2 1.2 0 0 0 6.31 0H1.2A1.2 1.2 0 0 0 0 1.2V2a1.2 1.2 0 0 0 1.2 1.2h3.482l3.5 17.127a2.793 2.793 0 1 0 3.343.427h10.458a2.792 2.792 0 1 0 3.172-.519l.275-1.211a1.2 1.2 0 0 0-1.167-1.462H10.877l-.326-1.6H25.17a1.2 1.2 0 0 0 1.167-.935z"/></symbol>
    <symbol viewBox="0 0 21 21" id="z-close"><path d="M21 2.115L18.885 0 10.5 8.385 2.115 0 0 2.115 8.385 10.5 0 18.885 2.115 21l8.385-8.385L18.885 21 21 18.885 12.615 10.5z"/></symbol>
    <symbol viewBox="0 0 16.66 14.107" id="z-menu"><path d="M0 7.053h16.66M0 1.5h16.66M0 12.607h16.66" stroke="#fff" stroke-linejoin="round" stroke-width="3"/></symbol>
    <symbol viewBox="0 0 7.92 12.263" id="z-next"><path d="M7.65 6.78l-5.214 5.213a.916.916 0 0 1-1.3 0l-.866-.866a.916.916 0 0 1 0-1.3l3.7-3.7-3.7-3.7a.916.916 0 0 1 0-1.3l.866-.866a.916.916 0 0 1 1.3 0L7.65 5.484a.912.912 0 0 1 0 1.296z"/></symbol>
    <symbol viewBox="0 0 11.2 18.4" id="z-prev"><path d="M.3 8.5L8.5.3c.4-.4 1-.4 1.4 0l1 1c.4.4.4 1 0 1.4L4.4 9.2l6.5 6.5c.4.4.4 1 0 1.4l-1 1c-.4.4-1 .4-1.4 0L.3 9.9c-.4-.4-.4-1 0-1.4z"/></symbol>
    <symbol viewBox="0 0 25.058 25.062" id="z-search"><path d="M24.717 21.668l-4.88-4.88a1.174 1.174 0 0 0-.832-.343h-.8a10.176 10.176 0 1 0-1.762 1.762v.8a1.174 1.174 0 0 0 .343.832l4.88 4.88a1.17 1.17 0 0 0 1.659 0l1.385-1.385a1.18 1.18 0 0 0 0-1.664zm-14.536-5.222a6.265 6.265 0 1 1 6.265-6.265 6.261 6.261 0 0 1-6.265 6.265z"/></symbol>
    <symbol viewBox="0 0 33 33" id="z-timer"><path d="M16.5 33A16.5 16.5 0 1 1 33 16.5 16.52 16.52 0 0 1 16.5 33zm0-30A13.5 13.5 0 1 0 30 16.5 13.52 13.52 0 0 0 16.5 3z"/><path d="M22.5 21a1.44 1.44 0 0 1-.67-.16l-6-3A1.49 1.49 0 0 1 15 16.5v-9a1.5 1.5 0 0 1 3 0v8.07l5.17 2.59A1.5 1.5 0 0 1 22.5 21z"/></symbol>
    <symbol viewBox="0 0 33.746 26.997" id="z-truck"><path d="M32.9 18.56h-.844v-5.7a2.531 2.531 0 0 0-.743-1.787l-5.265-5.268a2.531 2.531 0 0 0-1.787-.743h-2.326V2.531A2.532 2.532 0 0 0 19.4 0H2.531A2.532 2.532 0 0 0 0 2.531V19.4a2.532 2.532 0 0 0 2.531 2.531h.844a5.062 5.062 0 1 0 10.124 0h6.749a5.062 5.062 0 1 0 10.124 0H32.9a.846.846 0 0 0 .844-.844V19.4a.846.846 0 0 0-.844-.84zM8.437 24.466a2.531 2.531 0 1 1 2.531-2.531 2.532 2.532 0 0 1-2.531 2.531zm16.873 0a2.531 2.531 0 1 1 2.531-2.531 2.532 2.532 0 0 1-2.531 2.531zM29.528 13.5h-7.593V7.593h2.325l5.268 5.268z"/></symbol>
    <symbol viewBox="0 0 21.014 21.014" id="z-user"><path d="M10.507 11.82A5.91 5.91 0 1 0 4.6 5.91a5.912 5.912 0 0 0 5.907 5.91zm5.253 1.313H13.5a7.144 7.144 0 0 1-5.984 0H5.253A5.253 5.253 0 0 0 0 18.387v.657a1.971 1.971 0 0 0 1.97 1.97h17.074a1.971 1.971 0 0 0 1.97-1.97v-.657a5.253 5.253 0 0 0-5.254-5.253z"/></symbol>
    <symbol viewBox="0 0 119 96.6" id="z-email"><path d="M119 14.64A14.77 14.77 0 0 0 104.29 0h-89.6A14.76 14.76 0 0 0 0 14.59v67.32A14.76 14.76 0 0 0 14.7 96.6h89.6A14.78 14.78 0 0 0 119 81.9V14.64zM14.7 7h89.59a7.76 7.76 0 0 1 7.51 6L59.5 49.63 7.2 13a7.74 7.74 0 0 1 7.5-6zm89.59 82.6H14.71A7.74 7.74 0 0 1 7 81.9V21.42l50.49 35.35a3.52 3.52 0 0 0 4 0L112 21.42v60.47a7.76 7.76 0 0 1-7.71 7.71z"/></symbol>
</svg>