<svg class="svg-sprites" id="skin-sprite" xmlns="http://www.w3.org/2000/svg" xmlns:xlink="http://www.w3.org/1999/xlink">
    <symbol viewBox="0 0 28.725 25.533" id="z-cart"><path d="M26.337 15.027l2.357-10.373a1.2 1.2 0 00-1.167-1.462H7.94L7.482.957A1.2 1.2 0 006.31 0H1.2A1.2 1.2 0 000 1.2V2a1.2 1.2 0 001.2 1.2h3.482l3.5 17.127a2.793 2.793 0 103.343.427h10.458a2.792 2.792 0 103.172-.519l.275-1.211a1.2 1.2 0 00-1.167-1.462H10.877l-.326-1.6H25.17a1.2 1.2 0 001.167-.935z"/></symbol>
    <symbol viewBox="0 0 21 21" id="z-close"><path d="M21 2.115L18.885 0 10.5 8.385 2.115 0 0 2.115 8.385 10.5 0 18.885 2.115 21l8.385-8.385L18.885 21 21 18.885 12.615 10.5z"/></symbol>
    <symbol viewBox="0 0 16.66 14.107" id="z-menu"><path d="M0 7.053h16.66M0 1.5h16.66M0 12.607h16.66" stroke="#fff" stroke-linejoin="round" stroke-width="3"/></symbol>
    <symbol viewBox="0 0 7.92 12.263" id="z-next"><path d="M7.65 6.78l-5.214 5.213a.916.916 0 01-1.3 0l-.866-.866a.916.916 0 010-1.3l3.7-3.7-3.7-3.7a.916.916 0 010-1.3l.866-.866a.916.916 0 011.3 0L7.65 5.484a.912.912 0 010 1.296z"/></symbol>
    <symbol viewBox="0 0 11.2 18.4" id="z-prev"><path d="M.3 8.5L8.5.3c.4-.4 1-.4 1.4 0l1 1c.4.4.4 1 0 1.4L4.4 9.2l6.5 6.5c.4.4.4 1 0 1.4l-1 1c-.4.4-1 .4-1.4 0L.3 9.9c-.4-.4-.4-1 0-1.4z"/></symbol>
    <symbol viewBox="0 0 25.058 25.062" id="z-search"><path d="M24.717 21.668l-4.88-4.88a1.174 1.174 0 00-.832-.343h-.8a10.176 10.176 0 10-1.762 1.762v.8a1.174 1.174 0 00.343.832l4.88 4.88a1.17 1.17 0 001.659 0l1.385-1.385a1.18 1.18 0 000-1.664zm-14.536-5.222a6.265 6.265 0 116.265-6.265 6.261 6.261 0 01-6.265 6.265z"/></symbol>
    <symbol viewBox="0 0 21.014 21.014" id="z-user"><path d="M10.507 11.82A5.91 5.91 0 104.6 5.91a5.912 5.912 0 005.907 5.91zm5.253 1.313H13.5a7.144 7.144 0 01-5.984 0H5.253A5.253 5.253 0 000 18.387v.657a1.971 1.971 0 001.97 1.97h17.074a1.971 1.971 0 001.97-1.97v-.657a5.253 5.253 0 00-5.254-5.253z"/></symbol>
</svg>